<svg width="1024" height="1024" viewBox="0 0 1024 1024" fill="none" xmlns="http://www.w3.org/2000/svg">
<rect width="1024" height="1024" rx="100" fill="#607466"/>
<path d="M344.55 696.85C337.583 696.85 332.083 694.833 328.05 690.8C324.017 686.4 322 680.533 322 673.2V344.3H198.25C191.65 344.3 186.517 342.467 182.85 338.8C179.183 335.133 177.35 330.367 177.35 324.5C177.35 318.267 179.183 313.5 182.85 310.2C186.517 306.9 191.65 305.25 198.25 305.25H491.4C498 305.25 503.133 306.9 506.8 310.2C510.467 313.5 512.3 318.267 512.3 324.5C512.3 330.733 510.467 335.683 506.8 339.35C503.133 342.65 498 344.3 491.4 344.3H367.65V673.2C367.65 680.533 365.633 686.4 361.6 690.8C357.933 694.833 352.25 696.85 344.55 696.85ZM700.924 697.95C676.724 697.95 655.824 691.717 638.224 679.25C620.991 666.783 609.441 650.1 603.574 629.2L609.624 623.15V673.75C609.624 681.083 607.608 686.767 603.574 690.8C599.908 694.833 594.591 696.85 587.624 696.85C580.291 696.85 574.791 694.833 571.124 690.8C567.458 686.767 565.624 681.083 565.624 673.75V323.95C565.624 316.617 567.458 311.117 571.124 307.45C574.791 303.417 580.291 301.4 587.624 301.4C594.591 301.4 600.091 303.417 604.124 307.45C608.158 311.117 610.174 316.617 610.174 323.95V487.85H603.574C609.808 467.317 621.541 451 638.774 438.9C656.008 426.8 676.724 420.75 700.924 420.75C725.124 420.75 746.024 426.433 763.624 437.8C781.224 448.8 794.791 464.75 804.324 485.65C814.224 506.183 819.174 530.75 819.174 559.35C819.174 587.583 814.224 612.15 804.324 633.05C794.791 653.583 781.041 669.533 763.074 680.9C745.474 692.267 724.758 697.95 700.924 697.95ZM691.574 662.2C708.441 662.2 722.924 658.167 735.024 650.1C747.491 642.033 757.024 630.3 763.624 614.9C770.591 599.5 774.074 580.983 774.074 559.35C774.074 525.983 766.558 500.5 751.524 482.9C736.858 465.3 716.874 456.5 691.574 456.5C675.074 456.5 660.591 460.533 648.124 468.6C635.658 476.3 625.941 487.85 618.974 503.25C612.374 518.283 609.074 536.983 609.074 559.35C609.074 592.35 616.591 617.833 631.624 635.8C646.658 653.4 666.641 662.2 691.574 662.2Z" fill="#FDFDFD"/>
<path d="M422.249 273.936L418.046 270.991L414.854 261.779C414.298 260.175 412.886 259.066 411.255 258.954L366.942 255.918L353.831 246.307C347.203 241.448 338.883 239.781 331.004 241.733L321.326 244.132C310.954 246.702 300.99 250.839 291.773 256.35C291.644 256.338 291.514 256.33 291.382 256.33H280.334L276.602 252.431C274.995 250.753 272.391 250.753 270.784 252.431C269.178 254.109 269.178 256.829 270.784 258.508L275.721 263.665C276.493 264.471 277.539 264.924 278.63 264.924H279.419C277.017 266.844 274.686 268.867 272.438 270.992C271.576 271.806 271.084 272.964 271.084 274.178V277.728L268.428 283.329C268.146 283.922 268 284.575 268 285.237C268 290.567 272.152 294.904 277.255 294.904H292.169C293.983 301.902 300.112 307.066 307.377 307.066C314.642 307.066 320.771 301.902 322.585 294.904H373.401C375.215 301.902 381.344 307.066 388.609 307.066C395.874 307.066 402.003 301.902 403.817 294.904H414.032C418.159 294.904 421.823 292.005 422.941 287.855L424.766 281.079C425.495 278.373 424.483 275.503 422.249 273.936ZM415.022 285.527C414.898 285.988 414.491 286.31 414.032 286.31H403.817C402.003 279.313 395.874 274.149 388.609 274.149C381.345 274.149 375.215 279.313 373.402 286.31H322.585C320.771 279.313 314.642 274.149 307.377 274.149C300.112 274.149 293.983 279.313 292.169 286.31H277.255C276.907 286.31 276.598 286.129 276.412 285.851L278.884 280.641C279.165 280.048 279.312 279.395 279.312 278.733V276.107C291.862 264.663 307.007 256.512 323.225 252.494L332.903 250.095C338.496 248.709 344.401 249.892 349.105 253.341L363.16 263.644C363.777 264.097 364.501 264.363 365.253 264.415L408.033 267.346L410.768 275.239C411.066 276.098 411.618 276.836 412.344 277.345L416.45 280.222L415.022 285.527ZM396.139 290.607C396.139 294.944 392.761 298.472 388.609 298.472C384.458 298.472 381.08 294.944 381.08 290.607C381.08 286.27 384.458 282.742 388.609 282.742C392.761 282.742 396.139 286.27 396.139 290.607ZM314.906 290.607C314.906 294.944 311.529 298.472 307.377 298.472C303.225 298.472 299.848 294.944 299.848 290.607C299.848 286.27 303.225 282.742 307.377 282.742C311.529 282.742 314.906 286.27 314.906 290.607Z" fill="#FDFDFD"/>
<g clip-path="url(#clip0_16_2)">
<path d="M908.568 102.348C902.719 90.8125 893.969 81.0803 883.264 74.2017C871.858 66.8732 858.454 63 844.5 63C830.546 63 817.141 66.8732 805.735 74.2017C795.03 81.0803 786.28 90.8125 780.431 102.348C774.583 113.884 771.902 126.694 772.68 139.395C773.509 152.927 778.307 166.029 786.553 177.287L802.342 198.838C817.157 219.059 824.988 242.998 824.988 268.066C824.988 271.343 827.645 274.001 830.923 274.001H858.079C861.356 274.001 864.014 271.342 864.014 268.065C864.014 242.997 871.844 219.059 886.659 198.838L902.448 177.287C910.694 166.029 915.492 152.927 916.321 139.395C917.098 126.694 914.417 113.883 908.568 102.348ZM864.862 78.4446C876.955 91.8071 880.497 117.744 875.102 153.452C871.718 175.851 865.72 195.706 863.443 202.792H850.435V75.6445C850.435 75.4777 850.424 75.3133 850.41 75.1495C855.37 75.6118 860.153 76.6528 864.69 78.2345C864.748 78.3039 864.801 78.3769 864.862 78.4446ZM825.556 202.792C823.279 195.706 817.282 175.852 813.898 153.453C808.503 117.746 812.044 91.8089 824.137 78.4458C824.198 78.3775 824.252 78.3045 824.31 78.2339C828.847 76.6528 833.63 75.6112 838.59 75.1489C838.576 75.3127 838.565 75.4765 838.565 75.6439V202.792H825.556ZM796.128 170.271C782.5 151.668 780.589 128.284 791.018 107.716C794.477 100.897 798.991 94.9942 804.316 90.1424C794.405 120.053 802.231 162.142 808.786 187.548L796.128 170.271ZM836.723 262.129C836.539 258.039 836.161 253.98 835.599 249.963H853.401C852.838 253.981 852.461 258.039 852.276 262.13L836.723 262.129ZM855.631 238.12C855.459 238.105 855.286 238.093 855.11 238.093H833.889C833.713 238.093 833.54 238.105 833.368 238.12C831.453 230.057 828.762 222.211 825.318 214.662H863.68C860.237 222.211 857.546 230.057 855.631 238.12ZM892.871 170.271L880.214 187.548C886.769 162.141 894.595 120.052 884.683 90.1412C890.008 94.993 894.523 100.895 897.981 107.716C908.41 128.283 906.5 151.668 892.871 170.271Z" fill="#FDFDFD"/>
</g>
<g clip-path="url(#clip1_16_2)">
<path d="M912.944 521.738C913.312 520.181 912.898 518.543 911.834 517.349L885.406 487.677C885.58 472.604 880.163 457.778 869.958 446.32L849.284 423.108C852.889 423.414 856.335 425.075 858.885 427.939L872.807 443.569C874.268 445.209 876.642 445.678 878.616 444.714C880.591 443.751 881.683 441.592 881.29 439.431C878.172 422.3 870.402 406.372 858.821 393.369L845.687 378.623C838.65 370.722 827.31 368.022 817.467 371.904C815.977 372.492 814.869 373.77 814.498 375.329C814.126 376.887 814.54 378.528 815.606 379.724L823.485 388.571L777.416 402.602C772.953 401.153 768.419 399.871 763.816 398.77C762.256 398.396 760.612 398.81 759.414 399.876L746.069 411.763C744.048 413.563 743.868 416.662 745.669 418.684L821.963 504.343C832.781 516.488 846.865 524.887 862.692 528.631C878.519 532.375 894.873 531.176 909.986 525.164C911.471 524.573 912.576 523.294 912.944 521.738ZM829.284 497.823L756.25 415.824L764.006 408.916C796.295 417.156 825.03 434.631 847.234 459.561L899.593 518.347C874.43 525.429 846.921 517.624 829.284 497.823ZM833.666 395.718C835.265 395.231 836.506 393.963 836.958 392.354C837.409 390.745 837.01 389.016 835.899 387.769L829.093 380.128C832.601 380.663 835.91 382.387 838.366 385.144L851.5 399.89C856.896 405.949 861.37 412.717 864.815 419.977C857.622 413.1 847.035 411.273 837.857 415.499C836.446 416.149 835.427 417.429 835.109 418.95C834.792 420.471 835.214 422.052 836.247 423.212L862.636 452.841C868.359 459.265 872.285 466.952 874.22 475.118L854.556 453.041C837.208 433.563 816.096 418.385 792.486 408.261L833.666 395.718Z" fill="#FDFDFD"/>
<path d="M834.185 465.422L824.526 454.578C822.726 452.557 819.627 452.378 817.606 454.178C815.584 455.978 815.405 459.077 817.205 461.099L826.864 471.943C828.665 473.964 831.763 474.143 833.785 472.343C835.806 470.543 835.986 467.444 834.185 465.422Z" fill="#FDFDFD"/>
<path d="M861.799 496.426L852.141 485.582C850.34 483.561 847.242 483.382 845.22 485.182C843.199 486.983 843.019 490.081 844.82 492.103L854.478 502.947C856.279 504.969 859.378 505.147 861.399 503.347C863.421 501.547 863.6 498.448 861.799 496.426Z" fill="#FDFDFD"/>
</g>
<path d="M256.672 508.786C256.672 510.128 256.763 511.449 256.921 512.749L228.943 520.922C228.013 520.124 226.806 519.639 225.484 519.639C222.547 519.639 220.165 522.021 220.165 524.958L220.165 546.899C220.165 549.836 222.547 552.218 225.484 552.218C228.421 552.218 230.803 549.836 230.803 546.899V533.002L239.796 538.652C239.764 538.902 239.746 539.158 239.753 539.414L240.442 586.915C239.467 585.738 237.993 584.988 236.345 584.988C233.408 584.988 231.026 587.369 231.026 590.307V603.121C231.026 606.059 233.408 608.44 236.345 608.44C239.282 608.44 241.664 606.059 241.664 603.121V602.164C242.14 602.036 242.607 601.843 243.05 601.574L246.565 599.438L258.197 605.334C257.209 608.453 256.672 611.772 256.672 615.215C256.672 633.293 271.379 648 289.457 648C307.535 648 322.243 633.293 322.243 615.215C322.243 599.603 311.271 586.515 296.636 583.231L297.651 565.69C297.657 565.586 297.66 565.484 297.66 565.382C297.66 563.56 296.725 561.855 295.17 560.878L242.779 527.964L259.899 522.962C265.196 533.962 276.455 541.571 289.457 541.571C307.535 541.571 322.243 526.864 322.243 508.786C322.243 490.707 307.535 476 289.457 476C271.379 476 256.672 490.708 256.672 508.786ZM257.267 592.936L286.444 575.208L286.016 582.612C276.596 583.599 268.354 588.594 263.022 595.853L257.267 592.936ZM289.457 637.362C277.246 637.362 267.311 627.427 267.311 615.215C267.311 613.505 267.512 611.842 267.881 610.242L287.053 619.96C288.653 620.771 290.554 620.721 292.109 619.826C293.665 618.931 294.664 617.313 294.768 615.522L296.01 594.058C305.033 596.858 311.605 605.284 311.605 615.215C311.605 627.427 301.67 637.362 289.457 637.362ZM284.616 606.798L272.7 600.759C275.92 597.032 280.356 594.388 285.388 593.449L284.616 606.798ZM282.237 565.316L251.043 584.27L250.479 545.365L282.237 565.316ZM311.605 508.786C311.605 520.998 301.67 530.933 289.457 530.933C281.302 530.933 274.166 526.498 270.323 519.917L290.949 513.891C293.769 513.067 295.388 510.112 294.563 507.295C293.739 504.474 290.786 502.856 287.966 503.68L267.335 509.707C267.322 509.402 267.311 509.095 267.311 508.786C267.311 496.573 277.246 486.638 289.458 486.638C301.67 486.638 311.605 496.573 311.605 508.786Z" fill="#FDFDFD"/>
<defs>
<clipPath id="clip0_16_2">
<rect width="211" height="211" fill="white" transform="translate(739 63)"/>
</clipPath>
<clipPath id="clip1_16_2">
<rect width="194" height="194" fill="white" transform="translate(852.678 316.809) rotate(48.3094)"/>
</clipPath>
</defs>
</svg>
