<svg width="3112" height="750" viewBox="0 0 3112 750" fill="none" xmlns="http://www.w3.org/2000/svg">
<path d="M167.55 559.85C160.583 559.85 155.083 557.833 151.05 553.8C147.017 549.4 145 543.533 145 536.2V207.3H21.25C14.65 207.3 9.51667 205.467 5.85 201.8C2.18333 198.133 0.35 193.367 0.35 187.5C0.35 181.267 2.18333 176.5 5.85 173.2C9.51667 169.9 14.65 168.25 21.25 168.25H314.4C321 168.25 326.133 169.9 329.8 173.2C333.467 176.5 335.3 181.267 335.3 187.5C335.3 193.733 333.467 198.683 329.8 202.35C326.133 205.65 321 207.3 314.4 207.3H190.65V536.2C190.65 543.533 188.633 549.4 184.6 553.8C180.933 557.833 175.25 559.85 167.55 559.85ZM410.624 559.85C403.291 559.85 397.791 557.833 394.124 553.8C390.458 549.767 388.624 544.083 388.624 536.75V186.95C388.624 179.617 390.458 174.117 394.124 170.45C397.791 166.417 403.291 164.4 410.624 164.4C417.591 164.4 423.091 166.417 427.124 170.45C431.158 174.117 433.174 179.617 433.174 186.95V348.1H426.024C433.724 326.833 446.191 310.883 463.424 300.25C481.024 289.25 501.191 283.75 523.924 283.75C545.191 283.75 562.791 287.6 576.724 295.3C591.024 303 601.658 314.733 608.624 330.5C615.591 345.9 619.074 365.517 619.074 389.35V536.75C619.074 544.083 617.058 549.767 613.024 553.8C609.358 557.833 604.041 559.85 597.074 559.85C589.741 559.85 584.058 557.833 580.024 553.8C576.358 549.767 574.524 544.083 574.524 536.75V392.1C574.524 367.167 569.574 349.017 559.674 337.65C550.141 325.917 534.741 320.05 513.474 320.05C488.908 320.05 469.291 327.75 454.624 343.15C440.324 358.183 433.174 378.35 433.174 403.65V536.75C433.174 552.15 425.658 559.85 410.624 559.85ZM723.222 558.75C715.889 558.75 710.389 556.733 706.722 552.7C703.055 548.3 701.222 542.25 701.222 534.55V309.6C701.222 301.9 703.055 296.033 706.722 292C710.389 287.967 715.889 285.95 723.222 285.95C730.189 285.95 735.689 287.967 739.722 292C743.755 296.033 745.772 301.9 745.772 309.6V534.55C745.772 542.25 743.755 548.3 739.722 552.7C736.055 556.733 730.555 558.75 723.222 558.75ZM723.222 224.35C714.055 224.35 706.905 221.967 701.772 217.2C696.639 212.067 694.072 205.283 694.072 196.85C694.072 188.05 696.639 181.45 701.772 177.05C706.905 172.283 714.055 169.9 723.222 169.9C732.755 169.9 739.905 172.283 744.672 177.05C749.805 181.45 752.372 188.05 752.372 196.85C752.372 205.283 749.805 212.067 744.672 217.2C739.905 221.967 732.755 224.35 723.222 224.35ZM851.054 559.85C843.721 559.85 838.221 557.833 834.554 553.8C830.887 549.767 829.054 544.083 829.054 536.75V307.4C829.054 300.067 830.887 294.567 834.554 290.9C838.221 286.867 843.537 284.85 850.504 284.85C857.471 284.85 862.787 286.867 866.454 290.9C870.487 294.567 872.504 300.067 872.504 307.4V354.7L866.454 348.1C874.154 326.833 886.621 310.883 903.854 300.25C921.454 289.25 941.621 283.75 964.354 283.75C985.621 283.75 1003.22 287.6 1017.15 295.3C1031.45 303 1042.09 314.733 1049.05 330.5C1056.02 345.9 1059.5 365.517 1059.5 389.35V536.75C1059.5 544.083 1057.49 549.767 1053.45 553.8C1049.79 557.833 1044.47 559.85 1037.5 559.85C1030.17 559.85 1024.49 557.833 1020.45 553.8C1016.79 549.767 1014.95 544.083 1014.95 536.75V392.1C1014.95 367.167 1010 349.017 1000.1 337.65C990.571 325.917 975.171 320.05 953.904 320.05C929.337 320.05 909.721 327.75 895.054 343.15C880.754 358.183 873.604 378.35 873.604 403.65V536.75C873.604 552.15 866.087 559.85 851.054 559.85ZM1259.9 659.95C1240.47 659.95 1221.4 657.567 1202.7 652.8C1184.37 648.4 1167.68 641.25 1152.65 631.35C1148.25 628.783 1145.32 625.667 1143.85 622C1142.75 618.333 1142.57 614.667 1143.3 611C1144.03 607.7 1145.68 604.583 1148.25 601.65C1150.82 599.083 1153.75 597.433 1157.05 596.7C1160.72 595.967 1164.38 596.517 1168.05 598.35C1184.18 608.25 1199.58 615.033 1214.25 618.7C1228.92 622.367 1243.4 624.2 1257.7 624.2C1283.73 624.2 1303.35 617.233 1316.55 603.3C1330.12 589.367 1336.9 569.2 1336.9 542.8V480.65H1342.4C1336.9 501.917 1325.17 518.783 1307.2 531.25C1289.6 543.717 1268.88 549.95 1245.05 549.95C1220.48 549.95 1199.22 544.45 1181.25 533.45C1163.28 522.083 1149.35 506.317 1139.45 486.15C1129.92 465.983 1125.15 442.7 1125.15 416.3C1125.15 396.5 1127.9 378.533 1133.4 362.4C1138.9 345.9 1146.78 331.967 1157.05 320.6C1167.68 308.867 1180.33 299.883 1195 293.65C1210.03 287.05 1226.72 283.75 1245.05 283.75C1269.25 283.75 1290.15 289.983 1307.75 302.45C1325.35 314.55 1336.72 331.05 1341.85 351.95L1336.35 358.55V307.4C1336.35 300.067 1338.18 294.567 1341.85 290.9C1345.88 286.867 1351.38 284.85 1358.35 284.85C1365.68 284.85 1371.18 286.867 1374.85 290.9C1378.52 294.567 1380.35 300.067 1380.35 307.4V536.75C1380.35 577.45 1370.08 608.067 1349.55 628.6C1329.38 649.5 1299.5 659.95 1259.9 659.95ZM1253.3 513.65C1270.53 513.65 1285.38 509.8 1297.85 502.1C1310.32 494.033 1319.85 482.667 1326.45 468C1333.42 453.333 1336.9 436.1 1336.9 416.3C1336.9 386.6 1329.38 363.133 1314.35 345.9C1299.32 328.3 1278.97 319.5 1253.3 319.5C1236.43 319.5 1221.77 323.533 1209.3 331.6C1196.83 339.3 1187.12 350.483 1180.15 365.15C1173.55 379.45 1170.25 396.5 1170.25 416.3C1170.25 446 1177.77 469.65 1192.8 487.25C1207.83 504.85 1228 513.65 1253.3 513.65ZM1599.22 560.95C1575.02 560.95 1554.12 554.717 1536.52 542.25C1519.28 529.783 1507.73 513.1 1501.87 492.2L1507.92 486.15V536.75C1507.92 544.083 1505.9 549.767 1501.87 553.8C1498.2 557.833 1492.88 559.85 1485.92 559.85C1478.58 559.85 1473.08 557.833 1469.42 553.8C1465.75 549.767 1463.92 544.083 1463.92 536.75V186.95C1463.92 179.617 1465.75 174.117 1469.42 170.45C1473.08 166.417 1478.58 164.4 1485.92 164.4C1492.88 164.4 1498.38 166.417 1502.42 170.45C1506.45 174.117 1508.47 179.617 1508.47 186.95V350.85H1501.87C1508.1 330.317 1519.83 314 1537.07 301.9C1554.3 289.8 1575.02 283.75 1599.22 283.75C1623.42 283.75 1644.32 289.433 1661.92 300.8C1679.52 311.8 1693.08 327.75 1702.62 348.65C1712.52 369.183 1717.47 393.75 1717.47 422.35C1717.47 450.583 1712.52 475.15 1702.62 496.05C1693.08 516.583 1679.33 532.533 1661.37 543.9C1643.77 555.267 1623.05 560.95 1599.22 560.95ZM1589.87 525.2C1606.73 525.2 1621.22 521.167 1633.32 513.1C1645.78 505.033 1655.32 493.3 1661.92 477.9C1668.88 462.5 1672.37 443.983 1672.37 422.35C1672.37 388.983 1664.85 363.5 1649.82 345.9C1635.15 328.3 1615.17 319.5 1589.87 319.5C1573.37 319.5 1558.88 323.533 1546.42 331.6C1533.95 339.3 1524.23 350.85 1517.27 366.25C1510.67 381.283 1507.37 399.983 1507.37 422.35C1507.37 455.35 1514.88 480.833 1529.92 498.8C1544.95 516.4 1564.93 525.2 1589.87 525.2ZM1895.67 560.95C1869.64 560.95 1847.09 555.267 1828.02 543.9C1808.95 532.533 1794.1 516.583 1783.47 496.05C1773.2 475.15 1768.07 450.583 1768.07 422.35C1768.07 401.083 1771 382.017 1776.87 365.15C1782.74 347.917 1791.35 333.25 1802.72 321.15C1814.09 309.05 1827.47 299.883 1842.87 293.65C1858.64 287.05 1876.24 283.75 1895.67 283.75C1921.7 283.75 1944.25 289.433 1963.32 300.8C1982.39 312.167 1997.05 328.3 2007.32 349.2C2017.95 369.733 2023.27 394.117 2023.27 422.35C2023.27 443.617 2020.34 462.683 2014.47 479.55C2008.6 496.417 1999.99 511.083 1988.62 523.55C1977.25 535.65 1963.69 545 1947.92 551.6C1932.52 557.833 1915.1 560.95 1895.67 560.95ZM1895.67 525.2C1912.17 525.2 1926.65 521.167 1939.12 513.1C1951.59 505.033 1961.12 493.3 1967.72 477.9C1974.69 462.5 1978.17 443.983 1978.17 422.35C1978.17 388.983 1970.65 363.5 1955.62 345.9C1940.95 328.3 1920.97 319.5 1895.67 319.5C1878.8 319.5 1864.14 323.533 1851.67 331.6C1839.57 339.3 1830.04 350.85 1823.07 366.25C1816.47 381.283 1813.17 399.983 1813.17 422.35C1813.17 455.35 1820.69 480.833 1835.72 498.8C1850.75 516.4 1870.74 525.2 1895.67 525.2ZM2201.29 560.95C2175.25 560.95 2152.7 555.267 2133.64 543.9C2114.57 532.533 2099.72 516.583 2089.09 496.05C2078.82 475.15 2073.69 450.583 2073.69 422.35C2073.69 401.083 2076.62 382.017 2082.49 365.15C2088.35 347.917 2096.97 333.25 2108.34 321.15C2119.7 309.05 2133.09 299.883 2148.49 293.65C2164.25 287.05 2181.85 283.75 2201.29 283.75C2227.32 283.75 2249.87 289.433 2268.94 300.8C2288 312.167 2302.67 328.3 2312.94 349.2C2323.57 369.733 2328.89 394.117 2328.89 422.35C2328.89 443.617 2325.95 462.683 2320.09 479.55C2314.22 496.417 2305.6 511.083 2294.24 523.55C2282.87 535.65 2269.3 545 2253.54 551.6C2238.14 557.833 2220.72 560.95 2201.29 560.95ZM2201.29 525.2C2217.79 525.2 2232.27 521.167 2244.74 513.1C2257.2 505.033 2266.74 493.3 2273.34 477.9C2280.3 462.5 2283.79 443.983 2283.79 422.35C2283.79 388.983 2276.27 363.5 2261.24 345.9C2246.57 328.3 2226.59 319.5 2201.29 319.5C2184.42 319.5 2169.75 323.533 2157.29 331.6C2145.19 339.3 2135.65 350.85 2128.69 366.25C2122.09 381.283 2118.79 399.983 2118.79 422.35C2118.79 455.35 2126.3 480.833 2141.34 498.8C2156.37 516.4 2176.35 525.2 2201.29 525.2ZM2417.8 559.85C2410.47 559.85 2404.97 557.833 2401.3 553.8C2397.64 549.767 2395.8 544.083 2395.8 536.75V186.95C2395.8 179.617 2397.64 174.117 2401.3 170.45C2404.97 166.417 2410.47 164.4 2417.8 164.4C2424.77 164.4 2430.27 166.417 2434.3 170.45C2438.34 174.117 2440.35 179.617 2440.35 186.95V407.5H2441.45L2554.2 299.7C2559.34 294.933 2563.74 291.267 2567.4 288.7C2571.44 286.133 2576.75 284.85 2583.35 284.85C2589.22 284.85 2593.8 286.5 2597.1 289.8C2600.4 292.733 2601.87 296.583 2601.5 301.35C2601.5 305.75 2599.3 310.517 2594.9 315.65L2475 429.5V405.3L2605.35 527.95C2610.49 533.083 2613.05 538.033 2613.05 542.8C2613.05 547.567 2611.22 551.6 2607.55 554.9C2604.25 558.2 2599.85 559.85 2594.35 559.85C2587.75 559.85 2582.44 558.567 2578.4 556C2574.37 553.067 2569.42 548.85 2563.55 543.35L2441.45 430.6H2440.35V536.75C2440.35 552.15 2432.84 559.85 2417.8 559.85ZM2784.27 560.95C2756.04 560.95 2731.65 555.45 2711.12 544.45C2690.95 533.083 2675.19 517.133 2663.82 496.6C2652.82 476.067 2647.32 451.5 2647.32 422.9C2647.32 395.033 2652.82 370.833 2663.82 350.3C2674.82 329.4 2689.85 313.083 2708.92 301.35C2728.35 289.617 2750.72 283.75 2776.02 283.75C2793.99 283.75 2810.12 286.867 2824.42 293.1C2838.72 298.967 2850.82 307.583 2860.72 318.95C2870.99 330.317 2878.69 344.067 2883.82 360.2C2889.32 376.333 2892.07 394.483 2892.07 414.65C2892.07 420.517 2890.42 424.917 2887.12 427.85C2883.82 430.417 2879.05 431.7 2872.82 431.7H2681.42V402.55H2862.37L2853.57 409.7C2853.57 389.9 2850.64 373.217 2844.77 359.65C2838.9 345.717 2830.29 335.083 2818.92 327.75C2807.92 320.417 2793.99 316.75 2777.12 316.75C2758.42 316.75 2742.47 321.15 2729.27 329.95C2716.44 338.383 2706.72 350.3 2700.12 365.7C2693.52 380.733 2690.22 398.333 2690.22 418.5V421.8C2690.22 455.533 2698.29 481.2 2714.42 498.8C2730.92 516.4 2754.2 525.2 2784.27 525.2C2796.74 525.2 2809.02 523.55 2821.12 520.25C2833.59 516.95 2845.69 511.45 2857.42 503.75C2862.55 500.45 2867.14 498.983 2871.17 499.35C2875.57 499.35 2879.05 500.633 2881.62 503.2C2884.19 505.4 2885.84 508.333 2886.57 512C2887.67 515.3 2887.3 518.967 2885.47 523C2884 527.033 2880.89 530.517 2876.12 533.45C2864.02 542.25 2849.72 549.033 2833.22 553.8C2816.72 558.567 2800.4 560.95 2784.27 560.95ZM2979.09 559.85C2971.76 559.85 2966.08 557.833 2962.04 553.8C2958.38 549.767 2956.54 544.083 2956.54 536.75V307.4C2956.54 300.067 2958.38 294.567 2962.04 290.9C2965.71 286.867 2971.03 284.85 2977.99 284.85C2984.96 284.85 2990.28 286.867 2993.94 290.9C2997.98 294.567 2999.99 300.067 2999.99 307.4V351.95H2994.49C3000.36 330.317 3011.54 313.633 3028.04 301.9C3044.54 290.167 3064.89 283.933 3089.09 283.2C3094.59 282.833 3098.99 284.117 3102.29 287.05C3105.59 289.617 3107.43 294.2 3107.79 300.8C3108.16 307.033 3106.69 311.983 3103.39 315.65C3100.09 319.317 3094.96 321.517 3087.99 322.25L3079.19 323.35C3054.26 325.55 3035.01 333.617 3021.44 347.55C3008.24 361.117 3001.64 379.817 3001.64 403.65V536.75C3001.64 544.083 2999.63 549.767 2995.59 553.8C2991.93 557.833 2986.43 559.85 2979.09 559.85Z" fill="#FDFDFD"/>
</svg>
