<svg width="4224" height="1024" viewBox="0 0 4224 1024" fill="none" xmlns="http://www.w3.org/2000/svg">
<rect width="4224" height="1024" rx="100" fill="#607466"/>
<path d="M722.55 696.85C715.583 696.85 710.083 694.833 706.05 690.8C702.017 686.4 700 680.533 700 673.2V344.3H576.25C569.65 344.3 564.517 342.467 560.85 338.8C557.183 335.133 555.35 330.367 555.35 324.5C555.35 318.267 557.183 313.5 560.85 310.2C564.517 306.9 569.65 305.25 576.25 305.25H869.4C876 305.25 881.133 306.9 884.8 310.2C888.467 313.5 890.3 318.267 890.3 324.5C890.3 330.733 888.467 335.683 884.8 339.35C881.133 342.65 876 344.3 869.4 344.3H745.65V673.2C745.65 680.533 743.633 686.4 739.6 690.8C735.933 694.833 730.25 696.85 722.55 696.85ZM965.624 696.85C958.291 696.85 952.791 694.833 949.124 690.8C945.458 686.767 943.624 681.083 943.624 673.75V323.95C943.624 316.617 945.458 311.117 949.124 307.45C952.791 303.417 958.291 301.4 965.624 301.4C972.591 301.4 978.091 303.417 982.124 307.45C986.158 311.117 988.174 316.617 988.174 323.95V485.1H981.024C988.724 463.833 1001.19 447.883 1018.42 437.25C1036.02 426.25 1056.19 420.75 1078.92 420.75C1100.19 420.75 1117.79 424.6 1131.72 432.3C1146.02 440 1156.66 451.733 1163.62 467.5C1170.59 482.9 1174.07 502.517 1174.07 526.35V673.75C1174.07 681.083 1172.06 686.767 1168.02 690.8C1164.36 694.833 1159.04 696.85 1152.07 696.85C1144.74 696.85 1139.06 694.833 1135.02 690.8C1131.36 686.767 1129.52 681.083 1129.52 673.75V529.1C1129.52 504.167 1124.57 486.017 1114.67 474.65C1105.14 462.917 1089.74 457.05 1068.47 457.05C1043.91 457.05 1024.29 464.75 1009.62 480.15C995.324 495.183 988.174 515.35 988.174 540.65V673.75C988.174 689.15 980.658 696.85 965.624 696.85ZM1278.22 695.75C1270.89 695.75 1265.39 693.733 1261.72 689.7C1258.06 685.3 1256.22 679.25 1256.22 671.55V446.6C1256.22 438.9 1258.06 433.033 1261.72 429C1265.39 424.967 1270.89 422.95 1278.22 422.95C1285.19 422.95 1290.69 424.967 1294.72 429C1298.76 433.033 1300.77 438.9 1300.77 446.6V671.55C1300.77 679.25 1298.76 685.3 1294.72 689.7C1291.06 693.733 1285.56 695.75 1278.22 695.75ZM1278.22 361.35C1269.06 361.35 1261.91 358.967 1256.77 354.2C1251.64 349.067 1249.07 342.283 1249.07 333.85C1249.07 325.05 1251.64 318.45 1256.77 314.05C1261.91 309.283 1269.06 306.9 1278.22 306.9C1287.76 306.9 1294.91 309.283 1299.67 314.05C1304.81 318.45 1307.37 325.05 1307.37 333.85C1307.37 342.283 1304.81 349.067 1299.67 354.2C1294.91 358.967 1287.76 361.35 1278.22 361.35ZM1406.05 696.85C1398.72 696.85 1393.22 694.833 1389.55 690.8C1385.89 686.767 1384.05 681.083 1384.05 673.75V444.4C1384.05 437.067 1385.89 431.567 1389.55 427.9C1393.22 423.867 1398.54 421.85 1405.5 421.85C1412.47 421.85 1417.79 423.867 1421.45 427.9C1425.49 431.567 1427.5 437.067 1427.5 444.4V491.7L1421.45 485.1C1429.15 463.833 1441.62 447.883 1458.85 437.25C1476.45 426.25 1496.62 420.75 1519.35 420.75C1540.62 420.75 1558.22 424.6 1572.15 432.3C1586.45 440 1597.09 451.733 1604.05 467.5C1611.02 482.9 1614.5 502.517 1614.5 526.35V673.75C1614.5 681.083 1612.49 686.767 1608.45 690.8C1604.79 694.833 1599.47 696.85 1592.5 696.85C1585.17 696.85 1579.49 694.833 1575.45 690.8C1571.79 686.767 1569.95 681.083 1569.95 673.75V529.1C1569.95 504.167 1565 486.017 1555.1 474.65C1545.57 462.917 1530.17 457.05 1508.9 457.05C1484.34 457.05 1464.72 464.75 1450.05 480.15C1435.75 495.183 1428.6 515.35 1428.6 540.65V673.75C1428.6 689.15 1421.09 696.85 1406.05 696.85ZM1814.9 796.95C1795.47 796.95 1776.4 794.567 1757.7 789.8C1739.37 785.4 1722.68 778.25 1707.65 768.35C1703.25 765.783 1700.32 762.667 1698.85 759C1697.75 755.333 1697.57 751.667 1698.3 748C1699.03 744.7 1700.68 741.583 1703.25 738.65C1705.82 736.083 1708.75 734.433 1712.05 733.7C1715.72 732.967 1719.38 733.517 1723.05 735.35C1739.18 745.25 1754.58 752.033 1769.25 755.7C1783.92 759.367 1798.4 761.2 1812.7 761.2C1838.73 761.2 1858.35 754.233 1871.55 740.3C1885.12 726.367 1891.9 706.2 1891.9 679.8V617.65H1897.4C1891.9 638.917 1880.17 655.783 1862.2 668.25C1844.6 680.717 1823.88 686.95 1800.05 686.95C1775.48 686.95 1754.22 681.45 1736.25 670.45C1718.28 659.083 1704.35 643.317 1694.45 623.15C1684.92 602.983 1680.15 579.7 1680.15 553.3C1680.15 533.5 1682.9 515.533 1688.4 499.4C1693.9 482.9 1701.78 468.967 1712.05 457.6C1722.68 445.867 1735.33 436.883 1750 430.65C1765.03 424.05 1781.72 420.75 1800.05 420.75C1824.25 420.75 1845.15 426.983 1862.75 439.45C1880.35 451.55 1891.72 468.05 1896.85 488.95L1891.35 495.55V444.4C1891.35 437.067 1893.18 431.567 1896.85 427.9C1900.88 423.867 1906.38 421.85 1913.35 421.85C1920.68 421.85 1926.18 423.867 1929.85 427.9C1933.52 431.567 1935.35 437.067 1935.35 444.4V673.75C1935.35 714.45 1925.08 745.067 1904.55 765.6C1884.38 786.5 1854.5 796.95 1814.9 796.95ZM1808.3 650.65C1825.53 650.65 1840.38 646.8 1852.85 639.1C1865.32 631.033 1874.85 619.667 1881.45 605C1888.42 590.333 1891.9 573.1 1891.9 553.3C1891.9 523.6 1884.38 500.133 1869.35 482.9C1854.32 465.3 1833.97 456.5 1808.3 456.5C1791.43 456.5 1776.77 460.533 1764.3 468.6C1751.83 476.3 1742.12 487.483 1735.15 502.15C1728.55 516.45 1725.25 533.5 1725.25 553.3C1725.25 583 1732.77 606.65 1747.8 624.25C1762.83 641.85 1783 650.65 1808.3 650.65ZM2154.22 697.95C2130.02 697.95 2109.12 691.717 2091.52 679.25C2074.28 666.783 2062.73 650.1 2056.87 629.2L2062.92 623.15V673.75C2062.92 681.083 2060.9 686.767 2056.87 690.8C2053.2 694.833 2047.88 696.85 2040.92 696.85C2033.58 696.85 2028.08 694.833 2024.42 690.8C2020.75 686.767 2018.92 681.083 2018.92 673.75V323.95C2018.92 316.617 2020.75 311.117 2024.42 307.45C2028.08 303.417 2033.58 301.4 2040.92 301.4C2047.88 301.4 2053.38 303.417 2057.42 307.45C2061.45 311.117 2063.47 316.617 2063.47 323.95V487.85H2056.87C2063.1 467.317 2074.83 451 2092.07 438.9C2109.3 426.8 2130.02 420.75 2154.22 420.75C2178.42 420.75 2199.32 426.433 2216.92 437.8C2234.52 448.8 2248.08 464.75 2257.62 485.65C2267.52 506.183 2272.47 530.75 2272.47 559.35C2272.47 587.583 2267.52 612.15 2257.62 633.05C2248.08 653.583 2234.33 669.533 2216.37 680.9C2198.77 692.267 2178.05 697.95 2154.22 697.95ZM2144.87 662.2C2161.73 662.2 2176.22 658.167 2188.32 650.1C2200.78 642.033 2210.32 630.3 2216.92 614.9C2223.88 599.5 2227.37 580.983 2227.37 559.35C2227.37 525.983 2219.85 500.5 2204.82 482.9C2190.15 465.3 2170.17 456.5 2144.87 456.5C2128.37 456.5 2113.88 460.533 2101.42 468.6C2088.95 476.3 2079.23 487.85 2072.27 503.25C2065.67 518.283 2062.37 536.983 2062.37 559.35C2062.37 592.35 2069.88 617.833 2084.92 635.8C2099.95 653.4 2119.93 662.2 2144.87 662.2ZM2450.67 697.95C2424.64 697.95 2402.09 692.267 2383.02 680.9C2363.95 669.533 2349.1 653.583 2338.47 633.05C2328.2 612.15 2323.07 587.583 2323.07 559.35C2323.07 538.083 2326 519.017 2331.87 502.15C2337.74 484.917 2346.35 470.25 2357.72 458.15C2369.09 446.05 2382.47 436.883 2397.87 430.65C2413.64 424.05 2431.24 420.75 2450.67 420.75C2476.7 420.75 2499.25 426.433 2518.32 437.8C2537.39 449.167 2552.05 465.3 2562.32 486.2C2572.95 506.733 2578.27 531.117 2578.27 559.35C2578.27 580.617 2575.34 599.683 2569.47 616.55C2563.6 633.417 2554.99 648.083 2543.62 660.55C2532.25 672.65 2518.69 682 2502.92 688.6C2487.52 694.833 2470.1 697.95 2450.67 697.95ZM2450.67 662.2C2467.17 662.2 2481.65 658.167 2494.12 650.1C2506.59 642.033 2516.12 630.3 2522.72 614.9C2529.69 599.5 2533.17 580.983 2533.17 559.35C2533.17 525.983 2525.65 500.5 2510.62 482.9C2495.95 465.3 2475.97 456.5 2450.67 456.5C2433.8 456.5 2419.14 460.533 2406.67 468.6C2394.57 476.3 2385.04 487.85 2378.07 503.25C2371.47 518.283 2368.17 536.983 2368.17 559.35C2368.17 592.35 2375.69 617.833 2390.72 635.8C2405.75 653.4 2425.74 662.2 2450.67 662.2ZM2756.29 697.95C2730.25 697.95 2707.7 692.267 2688.64 680.9C2669.57 669.533 2654.72 653.583 2644.09 633.05C2633.82 612.15 2628.69 587.583 2628.69 559.35C2628.69 538.083 2631.62 519.017 2637.49 502.15C2643.35 484.917 2651.97 470.25 2663.34 458.15C2674.7 446.05 2688.09 436.883 2703.49 430.65C2719.25 424.05 2736.85 420.75 2756.29 420.75C2782.32 420.75 2804.87 426.433 2823.94 437.8C2843 449.167 2857.67 465.3 2867.94 486.2C2878.57 506.733 2883.89 531.117 2883.89 559.35C2883.89 580.617 2880.95 599.683 2875.09 616.55C2869.22 633.417 2860.6 648.083 2849.24 660.55C2837.87 672.65 2824.3 682 2808.54 688.6C2793.14 694.833 2775.72 697.95 2756.29 697.95ZM2756.29 662.2C2772.79 662.2 2787.27 658.167 2799.74 650.1C2812.2 642.033 2821.74 630.3 2828.34 614.9C2835.3 599.5 2838.79 580.983 2838.79 559.35C2838.79 525.983 2831.27 500.5 2816.24 482.9C2801.57 465.3 2781.59 456.5 2756.29 456.5C2739.42 456.5 2724.75 460.533 2712.29 468.6C2700.19 476.3 2690.65 487.85 2683.69 503.25C2677.09 518.283 2673.79 536.983 2673.79 559.35C2673.79 592.35 2681.3 617.833 2696.34 635.8C2711.37 653.4 2731.35 662.2 2756.29 662.2ZM2972.8 696.85C2965.47 696.85 2959.97 694.833 2956.3 690.8C2952.64 686.767 2950.8 681.083 2950.8 673.75V323.95C2950.8 316.617 2952.64 311.117 2956.3 307.45C2959.97 303.417 2965.47 301.4 2972.8 301.4C2979.77 301.4 2985.27 303.417 2989.3 307.45C2993.34 311.117 2995.35 316.617 2995.35 323.95V544.5H2996.45L3109.2 436.7C3114.34 431.933 3118.74 428.267 3122.4 425.7C3126.44 423.133 3131.75 421.85 3138.35 421.85C3144.22 421.85 3148.8 423.5 3152.1 426.8C3155.4 429.733 3156.87 433.583 3156.5 438.35C3156.5 442.75 3154.3 447.517 3149.9 452.65L3030 566.5V542.3L3160.35 664.95C3165.49 670.083 3168.05 675.033 3168.05 679.8C3168.05 684.567 3166.22 688.6 3162.55 691.9C3159.25 695.2 3154.85 696.85 3149.35 696.85C3142.75 696.85 3137.44 695.567 3133.4 693C3129.37 690.067 3124.42 685.85 3118.55 680.35L2996.45 567.6H2995.35V673.75C2995.35 689.15 2987.84 696.85 2972.8 696.85ZM3339.27 697.95C3311.04 697.95 3286.65 692.45 3266.12 681.45C3245.95 670.083 3230.19 654.133 3218.82 633.6C3207.82 613.067 3202.32 588.5 3202.32 559.9C3202.32 532.033 3207.82 507.833 3218.82 487.3C3229.82 466.4 3244.85 450.083 3263.92 438.35C3283.35 426.617 3305.72 420.75 3331.02 420.75C3348.99 420.75 3365.12 423.867 3379.42 430.1C3393.72 435.967 3405.82 444.583 3415.72 455.95C3425.99 467.317 3433.69 481.067 3438.82 497.2C3444.32 513.333 3447.07 531.483 3447.07 551.65C3447.07 557.517 3445.42 561.917 3442.12 564.85C3438.82 567.417 3434.05 568.7 3427.82 568.7H3236.42V539.55H3417.37L3408.57 546.7C3408.57 526.9 3405.64 510.217 3399.77 496.65C3393.9 482.717 3385.29 472.083 3373.92 464.75C3362.92 457.417 3348.99 453.75 3332.12 453.75C3313.42 453.75 3297.47 458.15 3284.27 466.95C3271.44 475.383 3261.72 487.3 3255.12 502.7C3248.52 517.733 3245.22 535.333 3245.22 555.5V558.8C3245.22 592.533 3253.29 618.2 3269.42 635.8C3285.92 653.4 3309.2 662.2 3339.27 662.2C3351.74 662.2 3364.02 660.55 3376.12 657.25C3388.59 653.95 3400.69 648.45 3412.42 640.75C3417.55 637.45 3422.14 635.983 3426.17 636.35C3430.57 636.35 3434.05 637.633 3436.62 640.2C3439.19 642.4 3440.84 645.333 3441.57 649C3442.67 652.3 3442.3 655.967 3440.47 660C3439 664.033 3435.89 667.517 3431.12 670.45C3419.02 679.25 3404.72 686.033 3388.22 690.8C3371.72 695.567 3355.4 697.95 3339.27 697.95ZM3534.09 696.85C3526.76 696.85 3521.08 694.833 3517.04 690.8C3513.38 686.767 3511.54 681.083 3511.54 673.75V444.4C3511.54 437.067 3513.38 431.567 3517.04 427.9C3520.71 423.867 3526.03 421.85 3532.99 421.85C3539.96 421.85 3545.28 423.867 3548.94 427.9C3552.98 431.567 3554.99 437.067 3554.99 444.4V488.95H3549.49C3555.36 467.317 3566.54 450.633 3583.04 438.9C3599.54 427.167 3619.89 420.933 3644.09 420.2C3649.59 419.833 3653.99 421.117 3657.29 424.05C3660.59 426.617 3662.43 431.2 3662.79 437.8C3663.16 444.033 3661.69 448.983 3658.39 452.65C3655.09 456.317 3649.96 458.517 3642.99 459.25L3634.19 460.35C3609.26 462.55 3590.01 470.617 3576.44 484.55C3563.24 498.117 3556.64 516.817 3556.64 540.65V673.75C3556.64 681.083 3554.63 686.767 3550.59 690.8C3546.93 694.833 3541.43 696.85 3534.09 696.85Z" fill="#FDFDFD"/>
</svg>
