<svg width="668" height="666" viewBox="0 0 668 666" fill="none" xmlns="http://www.w3.org/2000/svg">
<path d="M167.55 517.85C160.583 517.85 155.083 515.833 151.05 511.8C147.017 507.4 145 501.533 145 494.2V165.3H21.25C14.65 165.3 9.51667 163.467 5.85 159.8C2.18333 156.133 0.35 151.367 0.35 145.5C0.35 139.267 2.18333 134.5 5.85 131.2C9.51667 127.9 14.65 126.25 21.25 126.25H314.4C321 126.25 326.133 127.9 329.8 131.2C333.467 134.5 335.3 139.267 335.3 145.5C335.3 151.733 333.467 156.683 329.8 160.35C326.133 163.65 321 165.3 314.4 165.3H190.65V494.2C190.65 501.533 188.633 507.4 184.6 511.8C180.933 515.833 175.25 517.85 167.55 517.85ZM523.924 518.95C499.724 518.95 478.824 512.717 461.224 500.25C443.991 487.783 432.441 471.1 426.574 450.2L432.624 444.15V494.75C432.624 502.083 430.608 507.767 426.574 511.8C422.908 515.833 417.591 517.85 410.624 517.85C403.291 517.85 397.791 515.833 394.124 511.8C390.458 507.767 388.624 502.083 388.624 494.75V144.95C388.624 137.617 390.458 132.117 394.124 128.45C397.791 124.417 403.291 122.4 410.624 122.4C417.591 122.4 423.091 124.417 427.124 128.45C431.158 132.117 433.174 137.617 433.174 144.95V308.85H426.574C432.808 288.317 444.541 272 461.774 259.9C479.008 247.8 499.724 241.75 523.924 241.75C548.124 241.75 569.024 247.433 586.624 258.8C604.224 269.8 617.791 285.75 627.324 306.65C637.224 327.183 642.174 351.75 642.174 380.35C642.174 408.583 637.224 433.15 627.324 454.05C617.791 474.583 604.041 490.533 586.074 501.9C568.474 513.267 547.758 518.95 523.924 518.95ZM514.574 483.2C531.441 483.2 545.924 479.167 558.024 471.1C570.491 463.033 580.024 451.3 586.624 435.9C593.591 420.5 597.074 401.983 597.074 380.35C597.074 346.983 589.558 321.5 574.524 303.9C559.858 286.3 539.874 277.5 514.574 277.5C498.074 277.5 483.591 281.533 471.124 289.6C458.658 297.3 448.941 308.85 441.974 324.25C435.374 339.283 432.074 357.983 432.074 380.35C432.074 413.35 439.591 438.833 454.624 456.8C469.658 474.4 489.641 483.2 514.574 483.2Z" fill="#FDFDFD"/>
</svg>
