<svg width="1024" height="1024" viewBox="0 0 1024 1024" fill="none" xmlns="http://www.w3.org/2000/svg">
<rect width="1024" height="1024" rx="100" fill="#607466"/>
<path d="M344.55 696.85C337.583 696.85 332.083 694.833 328.05 690.8C324.017 686.4 322 680.533 322 673.2V344.3H198.25C191.65 344.3 186.517 342.467 182.85 338.8C179.183 335.133 177.35 330.367 177.35 324.5C177.35 318.267 179.183 313.5 182.85 310.2C186.517 306.9 191.65 305.25 198.25 305.25H491.4C498 305.25 503.133 306.9 506.8 310.2C510.467 313.5 512.3 318.267 512.3 324.5C512.3 330.733 510.467 335.683 506.8 339.35C503.133 342.65 498 344.3 491.4 344.3H367.65V673.2C367.65 680.533 365.633 686.4 361.6 690.8C357.933 694.833 352.25 696.85 344.55 696.85ZM700.924 697.95C676.724 697.95 655.824 691.717 638.224 679.25C620.991 666.783 609.441 650.1 603.574 629.2L609.624 623.15V673.75C609.624 681.083 607.608 686.767 603.574 690.8C599.908 694.833 594.591 696.85 587.624 696.85C580.291 696.85 574.791 694.833 571.124 690.8C567.458 686.767 565.624 681.083 565.624 673.75V323.95C565.624 316.617 567.458 311.117 571.124 307.45C574.791 303.417 580.291 301.4 587.624 301.4C594.591 301.4 600.091 303.417 604.124 307.45C608.158 311.117 610.174 316.617 610.174 323.95V487.85H603.574C609.808 467.317 621.541 451 638.774 438.9C656.008 426.8 676.724 420.75 700.924 420.75C725.124 420.75 746.024 426.433 763.624 437.8C781.224 448.8 794.791 464.75 804.324 485.65C814.224 506.183 819.174 530.75 819.174 559.35C819.174 587.583 814.224 612.15 804.324 633.05C794.791 653.583 781.041 669.533 763.074 680.9C745.474 692.267 724.758 697.95 700.924 697.95ZM691.574 662.2C708.441 662.2 722.924 658.167 735.024 650.1C747.491 642.033 757.024 630.3 763.624 614.9C770.591 599.5 774.074 580.983 774.074 559.35C774.074 525.983 766.558 500.5 751.524 482.9C736.858 465.3 716.874 456.5 691.574 456.5C675.074 456.5 660.591 460.533 648.124 468.6C635.658 476.3 625.941 487.85 618.974 503.25C612.374 518.283 609.074 536.983 609.074 559.35C609.074 592.35 616.591 617.833 631.624 635.8C646.658 653.4 666.641 662.2 691.574 662.2Z" fill="#FDFDFD"/>
</svg>
